# 3ds Max Wavefront OBJ Exporter v0.97b - (c)2007 guruware
# File Created: 25.02.2016 20:01:30

mtllib box.mtl

#
# object SkyBox
#

v  -0.50000 -0.50000 -0.50000
v  -0.50000 -0.50000  0.50000
v   0.50000 -0.50000 -0.50000
v   0.50000 -0.50000  0.50000
v   0.50000  0.50000  0.50000
v  -0.50000  0.50000  0.50000
v   0.50000  0.50000 -0.50000
v  -0.50000  0.50000 -0.50000
# 8 vertices

vn  0.0000  1.0000  0.0000
vn  0.0000 -1.0000  0.0000
vn  0.0000  0.0000 -1.0000
vn -1.0000  0.0000  0.0000
vn  0.0000  0.0000  1.0000
vn  1.0000  0.0000  0.0000
# 6 vertex normals

vt -1.0000  1.0000 -1.0000
vt -1.0000 -1.0000 -1.0000
vt  1.0000  1.0000 -1.0000
vt  1.0000 -1.0000 -1.0000
vt  1.0000 -1.0000  1.0000
vt -1.0000 -1.0000  1.0000
vt  1.0000  1.0000  1.0000
vt -1.0000  1.0000  1.0000
# 8 texture coords

g box
usemtl box
f 1/1/1 2/2/1 3/3/1 
f 4/4/1 3/3/1 2/2/1 
f 5/5/2 6/6/2 7/7/2 
f 8/8/2 7/7/2 6/6/2 
f 4/4/3 2/2/3 5/5/3 
f 6/6/3 5/5/3 2/2/3 
f 3/3/4 4/4/4 7/7/4 
f 5/5/4 7/7/4 4/4/4 
f 1/1/5 3/3/5 8/8/5 
f 7/7/5 8/8/5 3/3/5 
f 2/2/6 1/1/6 6/6/6 
f 8/8/6 6/6/6 1/1/6 
# 12 faces

